<mxfile host="Electron" agent="Mozilla/5.0 (Windows NT 10.0; Win64; x64) AppleWebKit/537.36 (KHTML, like Gecko) draw.io/28.0.6 Chrome/138.0.7204.100 Electron/37.2.3 Safari/537.36" version="28.0.6">
  <diagram name="Página-1" id="NpVi7tfHaB4ter_acehh">
    <mxGraphModel dx="1825" dy="868" grid="1" gridSize="10" guides="1" tooltips="1" connect="1" arrows="1" fold="1" page="1" pageScale="1" pageWidth="827" pageHeight="1169" math="0" shadow="0">
      <root>
        <mxCell id="0" />
        <mxCell id="1" parent="0" />
        <mxCell id="dXj9GlstUtwU0JvAv0d5-31" value="" style="edgeStyle=orthogonalEdgeStyle;rounded=0;orthogonalLoop=1;jettySize=auto;html=1;" edge="1" parent="1" source="dXj9GlstUtwU0JvAv0d5-26" target="dXj9GlstUtwU0JvAv0d5-27">
          <mxGeometry relative="1" as="geometry" />
        </mxCell>
        <mxCell id="dXj9GlstUtwU0JvAv0d5-26" value="" style="ellipse;whiteSpace=wrap;html=1;aspect=fixed;fillColor=#60a917;fontColor=#ffffff;strokeColor=#2D7600;" vertex="1" parent="1">
          <mxGeometry x="350" y="40" width="40" height="40" as="geometry" />
        </mxCell>
        <mxCell id="dXj9GlstUtwU0JvAv0d5-32" value="" style="edgeStyle=orthogonalEdgeStyle;rounded=0;orthogonalLoop=1;jettySize=auto;html=1;" edge="1" parent="1" source="dXj9GlstUtwU0JvAv0d5-27" target="dXj9GlstUtwU0JvAv0d5-28">
          <mxGeometry relative="1" as="geometry" />
        </mxCell>
        <mxCell id="dXj9GlstUtwU0JvAv0d5-27" value="input n1&lt;span style=&quot;white-space: pre;&quot;&gt;&#x9;&lt;/span&gt;" style="rounded=0;whiteSpace=wrap;html=1;" vertex="1" parent="1">
          <mxGeometry x="310" y="140" width="120" height="60" as="geometry" />
        </mxCell>
        <mxCell id="dXj9GlstUtwU0JvAv0d5-33" value="" style="edgeStyle=orthogonalEdgeStyle;rounded=0;orthogonalLoop=1;jettySize=auto;html=1;" edge="1" parent="1" source="dXj9GlstUtwU0JvAv0d5-28" target="dXj9GlstUtwU0JvAv0d5-30">
          <mxGeometry relative="1" as="geometry" />
        </mxCell>
        <mxCell id="dXj9GlstUtwU0JvAv0d5-28" value="input n2" style="rounded=0;whiteSpace=wrap;html=1;" vertex="1" parent="1">
          <mxGeometry x="310" y="270" width="120" height="60" as="geometry" />
        </mxCell>
        <mxCell id="dXj9GlstUtwU0JvAv0d5-46" value="" style="edgeStyle=orthogonalEdgeStyle;rounded=0;orthogonalLoop=1;jettySize=auto;html=1;" edge="1" parent="1" source="dXj9GlstUtwU0JvAv0d5-30" target="dXj9GlstUtwU0JvAv0d5-45">
          <mxGeometry relative="1" as="geometry" />
        </mxCell>
        <mxCell id="dXj9GlstUtwU0JvAv0d5-30" value="input n3" style="rounded=0;whiteSpace=wrap;html=1;" vertex="1" parent="1">
          <mxGeometry x="310" y="400" width="120" height="60" as="geometry" />
        </mxCell>
        <mxCell id="dXj9GlstUtwU0JvAv0d5-49" style="edgeStyle=orthogonalEdgeStyle;rounded=0;orthogonalLoop=1;jettySize=auto;html=1;entryX=0.5;entryY=0;entryDx=0;entryDy=0;" edge="1" parent="1" source="dXj9GlstUtwU0JvAv0d5-45" target="dXj9GlstUtwU0JvAv0d5-47">
          <mxGeometry relative="1" as="geometry" />
        </mxCell>
        <mxCell id="dXj9GlstUtwU0JvAv0d5-50" style="edgeStyle=orthogonalEdgeStyle;rounded=0;orthogonalLoop=1;jettySize=auto;html=1;entryX=0.5;entryY=0;entryDx=0;entryDy=0;" edge="1" parent="1" source="dXj9GlstUtwU0JvAv0d5-45" target="dXj9GlstUtwU0JvAv0d5-48">
          <mxGeometry relative="1" as="geometry" />
        </mxCell>
        <mxCell id="dXj9GlstUtwU0JvAv0d5-45" value="n1 &amp;lt;= n2" style="rhombus;whiteSpace=wrap;html=1;" vertex="1" parent="1">
          <mxGeometry x="330" y="520" width="80" height="80" as="geometry" />
        </mxCell>
        <mxCell id="dXj9GlstUtwU0JvAv0d5-54" value="" style="edgeStyle=orthogonalEdgeStyle;rounded=0;orthogonalLoop=1;jettySize=auto;html=1;" edge="1" parent="1" source="dXj9GlstUtwU0JvAv0d5-47" target="dXj9GlstUtwU0JvAv0d5-52">
          <mxGeometry relative="1" as="geometry" />
        </mxCell>
        <mxCell id="dXj9GlstUtwU0JvAv0d5-47" value="n2&amp;lt;= n3" style="rhombus;whiteSpace=wrap;html=1;" vertex="1" parent="1">
          <mxGeometry x="170" y="640" width="80" height="80" as="geometry" />
        </mxCell>
        <mxCell id="dXj9GlstUtwU0JvAv0d5-55" value="" style="edgeStyle=orthogonalEdgeStyle;rounded=0;orthogonalLoop=1;jettySize=auto;html=1;" edge="1" parent="1" source="dXj9GlstUtwU0JvAv0d5-48" target="dXj9GlstUtwU0JvAv0d5-53">
          <mxGeometry relative="1" as="geometry" />
        </mxCell>
        <mxCell id="dXj9GlstUtwU0JvAv0d5-48" value="n1 &amp;lt;= n3" style="rhombus;whiteSpace=wrap;html=1;" vertex="1" parent="1">
          <mxGeometry x="480" y="640" width="80" height="80" as="geometry" />
        </mxCell>
        <mxCell id="dXj9GlstUtwU0JvAv0d5-59" style="edgeStyle=orthogonalEdgeStyle;rounded=0;orthogonalLoop=1;jettySize=auto;html=1;entryX=0;entryY=0.5;entryDx=0;entryDy=0;" edge="1" parent="1" source="dXj9GlstUtwU0JvAv0d5-52" target="dXj9GlstUtwU0JvAv0d5-56">
          <mxGeometry relative="1" as="geometry" />
        </mxCell>
        <mxCell id="dXj9GlstUtwU0JvAv0d5-52" value="n1,n2,n3" style="rounded=0;whiteSpace=wrap;html=1;" vertex="1" parent="1">
          <mxGeometry x="150" y="800" width="120" height="60" as="geometry" />
        </mxCell>
        <mxCell id="dXj9GlstUtwU0JvAv0d5-60" style="edgeStyle=orthogonalEdgeStyle;rounded=0;orthogonalLoop=1;jettySize=auto;html=1;entryX=1;entryY=0.5;entryDx=0;entryDy=0;" edge="1" parent="1" source="dXj9GlstUtwU0JvAv0d5-53" target="dXj9GlstUtwU0JvAv0d5-56">
          <mxGeometry relative="1" as="geometry" />
        </mxCell>
        <mxCell id="dXj9GlstUtwU0JvAv0d5-53" value="n2,n1,n3" style="rounded=0;whiteSpace=wrap;html=1;" vertex="1" parent="1">
          <mxGeometry x="460" y="800" width="120" height="60" as="geometry" />
        </mxCell>
        <mxCell id="dXj9GlstUtwU0JvAv0d5-56" value="" style="ellipse;whiteSpace=wrap;html=1;aspect=fixed;fillColor=#e51400;fontColor=#ffffff;strokeColor=#B20000;" vertex="1" parent="1">
          <mxGeometry x="345" y="910" width="50" height="50" as="geometry" />
        </mxCell>
        <mxCell id="dXj9GlstUtwU0JvAv0d5-57" value="sim" style="text;html=1;align=center;verticalAlign=middle;resizable=0;points=[];autosize=1;strokeColor=none;fillColor=none;" vertex="1" parent="1">
          <mxGeometry x="220" y="518" width="40" height="30" as="geometry" />
        </mxCell>
        <mxCell id="dXj9GlstUtwU0JvAv0d5-58" value="não" style="text;html=1;align=center;verticalAlign=middle;resizable=0;points=[];autosize=1;strokeColor=none;fillColor=none;" vertex="1" parent="1">
          <mxGeometry x="470" y="518" width="40" height="30" as="geometry" />
        </mxCell>
      </root>
    </mxGraphModel>
  </diagram>
</mxfile>
